<svg id="Capa_1" data-name="Capa 1" xmlns="http://www.w3.org/2000/svg" viewBox="0 0 2312.43 2159.43"><defs><style>.cls-1{fill:#76d1f8;}</style></defs><title>isotipo</title><path class="cls-1" d="M1966.69,269.24l-138,138C1413.09-8.35,795.17-2.88,365.89,426.4c-432,432-434.73,1047.18-19.14,1462.78l138-138C900.35,2166.76,1515.54,2164,1947.53,1732,2376.81,1302.76,2382.28,684.83,1966.69,269.24ZM1542.92,1327.36c-158.56,158.56-407.38,161.32-601.53-32.82l-138,138C609.24,1238.4,612,989.58,770.57,831,926.42,675.16,1178,669.69,1372.09,863.84l138-138C1704.24,920,1698.77,1171.51,1542.92,1327.36Z"/></svg>